<?xml version="1.0" encoding="UTF-8" standalone="no"?>
<!DOCTYPE svg PUBLIC "-//W3C//DTD SVG 1.1//EN" "http://www.w3.org/Graphics/SVG/1.1/DTD/svg11.dtd">
<!-- 由 Microsoft Visio, SVG Export 生成 PyBode.svg 页-1 -->
<svg xmlns="http://www.w3.org/2000/svg" xmlns:xlink="http://www.w3.org/1999/xlink" xmlns:ev="http://www.w3.org/2001/xml-events"
		xmlns:v="http://schemas.microsoft.com/visio/2003/SVGExtensions/" width="5.23933in" height="4.36059in"
		viewBox="0 0 377.231 313.963" xml:space="preserve" color-interpolation-filters="sRGB" class="st5">
	<v:documentProperties v:langID="2052" v:metric="true" v:viewMarkup="false"/>

	<style type="text/css">
	<![CDATA[
		.st1 {fill:none;stroke:none;stroke-linecap:round;stroke-linejoin:round;stroke-width:0.75}
		.st2 {fill:#000000;font-family:Arial;font-size:7.99999em;font-weight:bold}
		.st3 {stroke:#0070c0;stroke-linecap:butt;stroke-width:14}
		.st4 {stroke:#c00000;stroke-linecap:round;stroke-linejoin:round;stroke-width:14}
		.st5 {fill:none;fill-rule:evenodd;font-size:12px;overflow:visible;stroke-linecap:square;stroke-miterlimit:3}
	]]>
	</style>

	<g v:mID="0" v:index="1" v:groupContext="foregroundPage">
		<title>页-1</title>
		<v:pageProperties v:drawingScale="0.0393701" v:pageScale="0.0393701" v:drawingUnits="24" v:shadowOffsetX="8.50394"
				v:shadowOffsetY="-8.50394"/>
		<g id="group443-1" transform="translate(0.375,-6.57678)" v:mID="443" v:groupContext="group">
			<title>工作表.443</title>
			<g id="shape384-2" v:mID="384" v:groupContext="shape">
				<title>工作表.384</title>
				<desc>PyBode</desc>
				<v:textBlock v:margins="rect(4,4,4,4)" v:tabSpace="42.5197"/>
				<v:textRect cx="188.241" cy="262.939" width="376.49" height="102.047"/>
				<rect x="0" y="211.915" width="376.481" height="102.047" class="st1"/>
				<text x="9.53" y="291.74" class="st2" v:langID="1033"><v:paragraph v:horizAlign="1"/><v:tabList/>PyBode</text>			</g>
			<g id="shape391-5" v:mID="391" v:groupContext="shape" transform="translate(71.3116,-130.394)">
				<title>工作表.391</title>
				<path d="M0 313.96 L37.05 313.96 A34.0157 34.0157 -180 0 0 70.1 287.99 L99.51 167.21 A21.2756 21.2756 0 0 1 120.18
							 150.97 L120.18 150.97 A20.58 20.58 0 0 1 140.32 167.33 L164.42 282.38 A34.0157 34.0157 -180 0 0 197.71
							 309.43 L233.86 309.43" class="st3"/>
			</g>
			<g id="shape442-8" v:mID="442" v:groupContext="shape" transform="translate(71.3116,-91.1338)">
				<title>工作表.442</title>
				<path d="M0 238.41 L39 238.41 A8.50394 8.50394 -180 0 0 46.96 232.92 L70.31 171.19 A8.50394 8.50394 0 0 1 86.13 170.98
							 L136.58 294.41 A8.50394 8.50394 -180 0 0 152.35 294.33 L174.43 238.69 A8.50394 8.50394 0 0 1 182.33
							 233.32 L233.86 233.32" class="st4"/>
			</g>
		</g>
	</g>
</svg>
